<?xml version="1.0" encoding="UTF-8" standalone="no"?><!DOCTYPE svg PUBLIC "-//W3C//DTD SVG 1.1//EN" "http://www.w3.org/Graphics/SVG/1.1/DTD/svg11.dtd"><svg version="1.1" xmlns="http://www.w3.org/2000/svg" xmlns:xlink="http://www.w3.org/1999/xlink" xml:space="preserve" xmlns:serif="http://www.serif.com/" style="fill-rule:evenodd;clip-rule:evenodd;stroke-linejoin:round;stroke-miterlimit:1.41421;" width="15" height="14" viewBox="0 0 15 14" fill="none"><path d="M1.36217 7.63636C1.636 10.0144 3.4264 11.9536 5.7843 12.5429C4.77611 11.0874 4.16383 9.40315 4.01221 7.63636H1.36217ZM1.36217 6.36364H4.01048C4.1591 4.60524 4.77213 2.91736 5.78409 1.45716C3.42629 2.04653 1.63599 3.9857 1.36217 6.36364ZM13.2212 6.36364C12.9473 3.98563 11.1569 2.04641 8.79904 1.45711C9.80723 2.9126 10.4195 4.59685 10.5711 6.36364H13.2212ZM13.2212 7.63636H10.5729C10.4242 9.39476 9.8112 11.0826 8.79925 12.5428C11.157 11.9535 12.9473 10.0143 13.2212 7.63636ZM5.33934 6.36364H9.24213C9.07562 4.63707 8.39846 2.99213 7.29165 1.62322C6.18068 2.99704 5.5026 4.64714 5.33934 6.36364ZM9.244 7.63636H5.34121C5.50772 9.36293 6.18488 11.0079 7.29168 12.3768C8.40266 11.003 9.08074 9.35286 9.244 7.63636ZM7.29167 14C3.26459 14 0 10.866 0 7C0 3.13401 3.26459 0 7.29167 0C11.3187 0 14.5833 3.13401 14.5833 7C14.5833 10.866 11.3187 14 7.29167 14Z" fill="#000"/></svg>
